<?xml version="1.0"?>
<svg version="1.1" xmlns="http://www.w3.org/2000/svg" width="255" height="37" style=""><path fill="#de751f" d="M27.584,15.706l-0.154,1.276c-0.044,0.374-0.286,0.462-0.682,0.462l-3.982,0l0,12.43c0,0.418-0.088,0.506-0.462,0.506l-1.936,0c-0.396,0-0.462-0.088-0.462-0.484l0-12.452l-4.114,0c-0.374,0-0.506-0.154-0.506-0.528l0-1.298c0-0.33,0.154-0.462,0.484-0.462l11.132,0c0.572,0,0.726,0.176,0.682,0.55z M42.929,30.028c0,0.22-0.11,0.352-0.396,0.352l-1.958,0c-0.462,0-0.616-0.176-0.748-0.528l-1.144-3.234l-5.566,0l-1.144,3.3c-0.088,0.286-0.242,0.462-0.594,0.462l-1.958,0c-0.22,0-0.308-0.11-0.308-0.286c0-0.066,0-0.154,0.044-0.242l5.368-14.256c0.11-0.264,0.264-0.44,0.594-0.44l1.76,0c0.33,0,0.528,0.154,0.616,0.396l5.39,14.19c0.044,0.11,0.044,0.198,0.044,0.286z M37.935,24.484l-1.562-4.642c-0.198-0.616-0.33-1.078-0.44-1.43l-0.044,0c-0.11,0.374-0.242,0.836-0.462,1.452l-1.562,4.62l4.07,0z M55.414,25.936c0,3.058-2.486,4.708-5.346,4.708c-1.32,0-2.882-0.242-4.202-0.704c-0.286-0.11-0.374-0.242-0.374-0.418c0-0.088,0-0.176,0.044-0.286l0.462-1.43c0.066-0.22,0.176-0.352,0.396-0.352c0.088,0,0.198,0.022,0.33,0.066c1.034,0.374,2.178,0.66,3.278,0.66c1.188,0,2.53-0.572,2.53-1.958c0-1.012-0.748-1.562-1.606-1.98l-2.86-1.43c-1.562-0.77-2.596-2.068-2.596-3.784c0-2.684,2.64-4.158,5.082-4.158c1.452,0,2.662,0.22,3.938,0.77c0.286,0.132,0.44,0.264,0.44,0.44c0,0.088-0.022,0.176-0.066,0.286l-0.528,1.342c-0.088,0.242-0.22,0.33-0.374,0.33c-0.11,0-0.22-0.044-0.352-0.088c-0.902-0.374-2.024-0.682-2.904-0.682c-1.034,0-2.222,0.44-2.222,1.672c0,0.902,0.836,1.43,1.562,1.782l2.442,1.188c1.738,0.836,2.926,2.002,2.926,4.026z M70.187,15.706l-0.154,1.276c-0.044,0.374-0.286,0.462-0.682,0.462l-3.982,0l0,12.43c0,0.418-0.088,0.506-0.462,0.506l-1.936,0c-0.396,0-0.462-0.088-0.462-0.484l0-12.452l-4.114,0c-0.374,0-0.506-0.154-0.506-0.528l0-1.298c0-0.33,0.154-0.462,0.484-0.462l11.132,0c0.572,0,0.726,0.176,0.682,0.55z M84.234,15.42c0,0.066-0.022,0.176-0.088,0.286l-4.532,8.382l0,5.786c0,0.33-0.176,0.506-0.506,0.506l-1.848,0c-0.33,0-0.506-0.176-0.506-0.55l0-5.632l-4.774-8.514c-0.044-0.088-0.066-0.154-0.066-0.22c0-0.176,0.154-0.308,0.396-0.308l2.002,0c0.396,0,0.66,0.132,0.814,0.418l3.168,6.226l0.044,0l3.124-6.182c0.176-0.352,0.352-0.462,0.77-0.462l1.584,0c0.264,0,0.418,0.088,0.418,0.264z M100.173,22.834c0,2.64-0.902,4.62-2.398,5.896c-1.364,1.144-3.278,1.65-5.456,1.65l-4.202,0c-0.44,0-0.638-0.11-0.638-0.616l0-13.948c0-0.462,0.132-0.66,0.682-0.66l3.168,0c2.53,0,4.246,0.286,5.698,1.122c1.98,1.144,3.146,3.3,3.146,6.556z M97.137,22.812c0-2.002-0.594-3.52-1.716-4.356c-0.902-0.66-2.068-0.902-3.476-0.902l-1.606,0l0,10.45l1.694,0c1.518,0,2.794-0.242,3.718-1.166c0.88-0.88,1.386-2.2,1.386-4.026z M113.318,29.852c0,0.352-0.154,0.528-0.528,0.528l-8.162,0c-0.44,0-0.594-0.11-0.594-0.594l0-14.08c0-0.352,0.154-0.55,0.506-0.55l8.294,0c0.352,0,0.462,0.132,0.462,0.374l0,0.132l-0.154,1.32c-0.044,0.396-0.286,0.462-0.748,0.462l-5.522,0l0,3.982l5.082,0c0.418,0,0.55,0.176,0.55,0.484l0,1.254c0,0.374-0.154,0.528-0.528,0.528l-5.104,0l0,4.4l5.896,0c0.374,0,0.55,0.154,0.55,0.506l0,1.254z M126.111,29.852c0,0.396-0.198,0.528-0.528,0.528l-7.832,0c-0.396,0-0.572-0.132-0.572-0.616l0-14.058c0-0.352,0.176-0.55,0.528-0.55l1.76,0c0.396,0,0.55,0.154,0.55,0.572l0,12.298l5.566,0c0.374,0,0.528,0.176,0.528,0.506l0,1.32z M135.252,16.542c0,0.352-0.154,0.462-0.462,0.462l-1.254,0l0,11.528l1.188,0c0.308,0,0.462,0.198,0.462,0.462l0,0.946c0,0.264-0.11,0.44-0.396,0.44l-5.236,0c-0.286,0-0.44-0.176-0.44-0.418l0-0.99c0-0.308,0.132-0.44,0.44-0.44l1.166,0l0-11.528l-1.276,0c-0.308,0-0.44-0.154-0.44-0.44l0-0.968c0-0.242,0.132-0.44,0.396-0.44l5.39,0c0.308,0,0.462,0.198,0.462,0.418l0,0.968z M151.455,28.796c0,0.44-0.11,0.616-0.528,0.836c-1.21,0.616-3.256,1.012-4.928,1.012c-4.576,0-7.172-3.168-7.172-7.832c0-4.598,2.97-7.942,7.458-7.942c1.408,0,2.706,0.242,4.026,0.836c0.242,0.11,0.308,0.242,0.308,0.396c0,0.088-0.044,0.176-0.066,0.264l-0.506,1.32c-0.088,0.22-0.176,0.308-0.33,0.308c-0.088,0-0.198-0.044-0.308-0.088c-0.726-0.308-1.98-0.638-2.992-0.638c-1.188,0-2.332,0.44-3.102,1.254c-0.924,0.968-1.452,2.398-1.452,4.202c0,3.41,1.606,5.544,4.246,5.544c0.902,0,1.892-0.132,2.486-0.374l0-4.202l-1.958,0c-0.308,0-0.484-0.11-0.484-0.484l0-1.342c0-0.352,0.176-0.44,0.506-0.44l4.268,0c0.374,0,0.528,0.11,0.528,0.506l0,6.864z M166.712,15.706l-0.154,1.276c-0.044,0.374-0.286,0.462-0.682,0.462l-3.982,0l0,12.43c0,0.418-0.088,0.506-0.462,0.506l-1.936,0c-0.396,0-0.462-0.088-0.462-0.484l0-12.452l-4.114,0c-0.374,0-0.506-0.154-0.506-0.528l0-1.298c0-0.33,0.154-0.462,0.484-0.462l11.132,0c0.572,0,0.726,0.176,0.682,0.55z M181.551,29.83c0,0.396-0.154,0.55-0.528,0.55l-1.738,0c-0.396,0-0.572-0.154-0.572-0.55l0-6.138l-6.248,0l0,6.138c0,0.396-0.176,0.55-0.55,0.55l-1.716,0c-0.396,0-0.594-0.154-0.594-0.55l0-14.146c0-0.374,0.242-0.528,0.594-0.528l1.716,0c0.352,0,0.55,0.132,0.55,0.528l0,5.742l6.248,0l0-5.742c0-0.374,0.22-0.528,0.572-0.528l1.738,0c0.352,0,0.528,0.132,0.528,0.528l0,14.146z M195.532,25.936c0,3.058-2.486,4.708-5.346,4.708c-1.32,0-2.882-0.242-4.202-0.704c-0.286-0.11-0.374-0.242-0.374-0.418c0-0.088,0-0.176,0.044-0.286l0.462-1.43c0.066-0.22,0.176-0.352,0.396-0.352c0.088,0,0.198,0.022,0.33,0.066c1.034,0.374,2.178,0.66,3.278,0.66c1.188,0,2.53-0.572,2.53-1.958c0-1.012-0.748-1.562-1.606-1.98l-2.86-1.43c-1.562-0.77-2.596-2.068-2.596-3.784c0-2.684,2.64-4.158,5.082-4.158c1.452,0,2.662,0.22,3.938,0.77c0.286,0.132,0.44,0.264,0.44,0.44c0,0.088-0.022,0.176-0.066,0.286l-0.528,1.342c-0.088,0.242-0.22,0.33-0.374,0.33c-0.11,0-0.22-0.044-0.352-0.088c-0.902-0.374-2.024-0.682-2.904-0.682c-1.034,0-2.222,0.44-2.222,1.672c0,0.902,0.836,1.43,1.562,1.782l2.442,1.188c1.738,0.836,2.926,2.002,2.926,4.026z"/><path fill="#de6d4e" d=""/></svg>
